<?xml version="1.0" encoding="UTF-8"?><svg id="Calque_2" xmlns="http://www.w3.org/2000/svg" xmlns:xlink="http://www.w3.org/1999/xlink" viewBox="0 0 849.39 849.39"><defs><style>.cls-1{fill:#fff;}.cls-1,.cls-2{stroke-width:0px;}.cls-2{fill:url(#Dégradé_sans_nom_10);}</style><linearGradient id="Dégradé_sans_nom_10" x1="0" y1="424.7" x2="849.39" y2="424.7" gradientUnits="userSpaceOnUse"><stop offset="0" stop-color="#df5b15"/><stop offset="1" stop-color="#d71682"/></linearGradient></defs><g id="Calque_1-2"><rect class="cls-2" width="849.39" height="849.39" rx="196.56" ry="196.56"/><g id="Calque_1-2"><g id="Calque_1-2-2"><path class="cls-1" d="M450.76,163.72c.14.55,0,.96-.21,1.37-1.51,4.93-3.08,9.79-4.59,14.65-1.23,4.04-2.4,8.15-3.08,12.32-.68,3.63-1.1,7.39-1.44,11.09-.55,5.41-.68,10.88-.48,16.29.68,19.03,5.82,36.69,15.74,52.98,4.31,7.05,9.38,13.55,14.99,19.64,8.28,8.97,16.63,17.93,25.05,26.76,7.67,8.08,15.4,16.15,23,24.23,6.3,6.71,12.66,13.42,18.96,20.19,12.94,14.03,24.91,28.82,35.73,44.63,6.78,9.92,12.94,20.12,18.41,30.8,6.57,12.73,12.18,25.8,16.43,39.49,2.6,8.42,4.72,16.91,6.16,25.67.82,4.72,1.44,9.51,1.85,14.31.27,3.35.48,6.71.68,10.06.07,2.87.21,5.68.14,8.56-.07,4.65-.34,9.31-.75,13.96-1.64,18.14-6.02,35.59-12.59,52.5-5.68,14.65-13,28.54-21.42,41.82-1.16,1.78-2.33,3.56-3.42,5.34-3.22,5-7.19,9.24-12.05,12.59-3.08,2.12-6.16,4.38-9.24,6.57-.27.14-.48.48-.82.34-.07-.68.27-1.23.41-1.78,1.78-5.34,3.49-10.61,5.34-15.95,2.05-6.09,4.04-12.18,5.61-18.41,1.03-3.83,1.78-7.73,2.19-11.7.82-6.98.48-13.89-1.71-20.6-1.03-3.08-2.33-6.02-4.04-8.69-4.04-6.3-9.72-10.4-16.97-12.18-9.17-2.19-17.66-.48-25.6,4.45-4.59,2.87-8.28,6.71-11.09,11.36-2.05,3.42-3.97,6.91-6.02,10.34-1.78,3.08-3.76,6.09-5.95,8.9-1.44,1.85-3.01,3.56-4.79,5.07-.82.68-1.64,1.23-2.53,1.71-3.35,1.78-6.64,1.51-9.58-.89-1.23-1.03-2.33-2.19-3.29-3.49-2.05-2.74-3.56-5.89-4.86-9.03-2.19-5.27-3.83-10.75-5.34-16.22-1.85-6.98-3.29-14.03-4.59-21.08-.41-2.26-.68-4.52-1.03-6.78-.75-4.31-1.57-8.56-3.08-12.66-.55-1.44-1.16-2.87-1.92-4.24-.48-.89-1.1-1.78-1.85-2.53-2.05-2.12-4.38-2.6-7.05-1.37-1.92.82-3.42,2.12-4.93,3.49-2.12,2.05-4.04,4.38-5.75,6.71-3.76,5.07-6.98,10.34-10.2,15.74-4.86,8.21-9.45,16.56-14.03,24.91-5.13,9.24-10.34,18.55-15.95,27.58-3.9,6.37-8.01,12.59-12.59,18.41-2.67,3.42-5.48,6.64-8.56,9.58-2.67,2.53-5.48,4.79-8.69,6.5-2.26,1.23-4.59,2.05-7.19,2.33-2.53.27-4.93-.14-7.26-1.23-1.92-.82-3.63-2.05-5.13-3.42-2.33-2.12-4.59-4.18-6.98-6.16-2.94-2.33-6.09-4.52-9.58-5.95-2.87-1.23-5.89-1.78-9.03-1.71-1.64,0-3.29.27-4.93.75-4.04,1.1-7.6,2.94-10.75,5.68-4.04,3.35-6.23,7.67-6.98,12.8-.55,3.56-.27,7.12.21,10.68.34,2.53.89,5.13,1.44,7.6,0,.27.14.62.21.89.07,2.12,0,4.24-.34,6.37,0,.27-.27.41-.62.27-.27-.21-.62-.48-.82-.68-6.91-5.68-13.55-11.77-19.71-18.21-11.77-12.32-21.9-25.8-30.05-40.73-6.43-11.77-11.36-24.16-14.99-37.03-1.85-6.78-3.35-13.55-4.38-20.47-.68-4.04-1.16-8.15-1.57-12.18-1.16-8.21-1.3-16.36-1.3-24.57,0-4.04.21-7.94.48-11.98.48-6.43,1.23-12.8,2.33-19.1,1.64-9.58,4.04-18.96,7.19-28.06,7.19-20.88,17.66-39.9,31.62-57.02,9.58-11.84,20.47-22.25,32.65-31.35.07,0,.14-.14.27-.21,1.37-1.03,1.3-.82,1.64.68.48,2.05.27,4.11-.48,6.09-.48,1.23-1.03,2.53-1.71,3.63-2.12,3.42-3.56,7.19-4.65,11.09-1.37,4.86-2.67,9.79-3.49,14.78-.55,3.15-.96,6.37-1.1,9.58-.07,1.78-.27,3.63-.21,5.48.27,13.69,4.04,26.35,11.7,37.71,3.83,5.68,8.62,10.34,14.51,13.76,4.59,2.74,9.58,4.45,14.85,5.27,5.2.82,10.4.75,15.61,0,6.5-.96,12.59-3.08,18.21-6.43,7.39-4.52,12.94-10.75,16.91-18.41,2.53-4.93,4.18-10.13,5.13-15.61,1.03-5.89,1.23-11.77.82-17.66-.48-7.94-2.12-15.61-4.38-23.13-2.46-8.01-5.54-15.74-9.03-23.27-4.11-8.9-7.8-17.93-10.95-27.24-3.22-9.45-5.75-19.03-7.53-28.82-.82-4.59-1.57-9.24-1.98-13.83-.34-3.42-.68-6.78-.75-10.2,0-2.4-.21-4.72-.21-7.19,0-4.59.21-9.1.62-13.69,1.98-21.22,7.73-41.34,17.59-60.3,6.84-13.14,15.74-24.71,26.63-34.7,7.39-6.71,15.4-12.39,24.09-17.25,7.53-4.24,15.4-7.8,23.55-10.75.48-.14.96-.41,1.57-.48v.21l-.34.07Z"/></g></g></g></svg>